<?xml version="1.0" encoding="UTF-8"?>
<svg id="Layer_2" data-name="Layer 2" xmlns="http://www.w3.org/2000/svg" viewBox="0 0 338.03 57.1">
  <defs>
    <style>
      .cls-1 {
        fill: #fff;
      }

      .cls-2 {
        isolation: isolate;
      }

      .cls-3 {
        fill: #f3c;
      }

      .cls-4 {
        fill: #7c3994;
      }
    </style>
  </defs>
  <g id="cssanimation_IO_Logo" data-name="cssanimation IO Logo">
    <g>
      <g class="cls-2">
        <path class="cls-4" d="M119.06,14.88c2.29,0,4.19.26,5.72.78,1.52.52,2.75,1.27,3.67,2.24.92.97,1.57,2.15,1.95,3.54.38,1.39.57,2.93.57,4.63v16.12c-1.11.24-2.65.53-4.63.86s-4.37.49-7.18.49c-1.77,0-3.37-.16-4.81-.47-1.44-.31-2.68-.82-3.72-1.53-1.04-.71-1.84-1.64-2.39-2.78-.56-1.14-.83-2.55-.83-4.21s.32-2.95.96-4.06c.64-1.11,1.5-1.99,2.57-2.65,1.07-.66,2.3-1.14,3.69-1.43,1.39-.29,2.83-.44,4.32-.44,1,0,1.9.04,2.68.13.78.09,1.41.2,1.9.34v-.73c0-1.32-.4-2.37-1.2-3.17-.8-.8-2.18-1.2-4.16-1.2-1.32,0-2.62.1-3.9.29-1.28.19-2.39.46-3.33.81l-.99-6.24c.45-.14,1.01-.29,1.69-.44.68-.16,1.41-.29,2.21-.42.8-.12,1.64-.22,2.52-.31.88-.09,1.78-.13,2.68-.13ZM119.68,37.55c.76,0,1.49-.02,2.18-.05.69-.03,1.25-.09,1.66-.16v-5.88c-.31-.07-.78-.14-1.4-.21-.62-.07-1.2-.1-1.72-.1-.73,0-1.41.04-2.05.13s-1.2.25-1.69.49c-.49.24-.87.57-1.14.99s-.42.94-.42,1.56c0,1.21.41,2.05,1.22,2.52.81.47,1.93.7,3.35.7Z"/>
        <path class="cls-4" d="M136.43,16.55c1.32-.38,3.02-.74,5.1-1.07,2.08-.33,4.26-.49,6.55-.49s4.25.3,5.8.91c1.54.61,2.76,1.46,3.67,2.57s1.54,2.43,1.92,3.95c.38,1.53.57,3.22.57,5.1v15.44h-7.75v-14.51c0-2.5-.33-4.26-.99-5.3s-1.89-1.56-3.69-1.56c-.56,0-1.14.03-1.77.08-.62.05-1.18.11-1.66.18v21.11h-7.75v-26.42Z"/>
        <path class="cls-4" d="M173.97,7.71c0,1.42-.46,2.54-1.38,3.35-.92.82-2,1.22-3.25,1.22s-2.33-.41-3.25-1.22c-.92-.81-1.38-1.93-1.38-3.35s.46-2.54,1.38-3.35c.92-.81,2-1.22,3.25-1.22s2.33.41,3.25,1.22c.92.82,1.38,1.93,1.38,3.35ZM173.24,42.96h-7.75V15.61h7.75v27.35Z"/>
        <path class="cls-4" d="M193.99,28.45c0-2.5-.32-4.26-.96-5.3-.64-1.04-1.74-1.56-3.3-1.56-.49,0-.99.03-1.51.08-.52.05-1.02.11-1.51.18v21.11h-7.75v-26.42c.66-.17,1.43-.36,2.31-.55s1.82-.36,2.81-.52c.99-.16,2-.28,3.04-.36,1.04-.09,2.06-.13,3.07-.13,1.98,0,3.58.25,4.81.75,1.23.5,2.24,1.1,3.04,1.79,1.11-.8,2.38-1.42,3.82-1.87s2.76-.68,3.98-.68c2.18,0,3.98.3,5.38.91,1.4.61,2.52,1.46,3.35,2.57s1.4,2.43,1.72,3.95c.31,1.53.47,3.22.47,5.1v15.44h-7.75v-14.51c0-2.5-.32-4.26-.96-5.3-.64-1.04-1.74-1.56-3.3-1.56-.42,0-1,.1-1.74.31-.75.21-1.36.47-1.85.78.24.8.4,1.64.47,2.52.07.88.1,1.83.1,2.83v14.92h-7.75v-14.51Z"/>
        <path class="cls-4" d="M232.05,14.88c2.29,0,4.19.26,5.72.78,1.52.52,2.75,1.27,3.67,2.24.92.97,1.57,2.15,1.95,3.54.38,1.39.57,2.93.57,4.63v16.12c-1.11.24-2.65.53-4.63.86s-4.37.49-7.18.49c-1.77,0-3.37-.16-4.81-.47-1.44-.31-2.68-.82-3.72-1.53-1.04-.71-1.84-1.64-2.39-2.78-.56-1.14-.83-2.55-.83-4.21s.32-2.95.96-4.06c.64-1.11,1.5-1.99,2.57-2.65,1.07-.66,2.3-1.14,3.69-1.43,1.39-.29,2.83-.44,4.32-.44,1,0,1.9.04,2.68.13.78.09,1.41.2,1.9.34v-.73c0-1.32-.4-2.37-1.2-3.17-.8-.8-2.18-1.2-4.16-1.2-1.32,0-2.62.1-3.9.29-1.28.19-2.39.46-3.33.81l-.99-6.24c.45-.14,1.01-.29,1.69-.44.68-.16,1.41-.29,2.21-.42.8-.12,1.64-.22,2.52-.31.88-.09,1.78-.13,2.68-.13ZM232.68,37.55c.76,0,1.49-.02,2.18-.05.69-.03,1.25-.09,1.66-.16v-5.88c-.31-.07-.78-.14-1.4-.21-.62-.07-1.2-.1-1.72-.1-.73,0-1.41.04-2.05.13s-1.2.25-1.69.49c-.49.24-.87.57-1.14.99s-.42.94-.42,1.56c0,1.21.41,2.05,1.22,2.52.81.47,1.93.7,3.35.7Z"/>
        <path class="cls-4" d="M249.16,8.8l7.75-1.25v8.06h9.31v6.45h-9.31v9.62c0,1.63.29,2.93.86,3.9.57.97,1.72,1.46,3.46,1.46.83,0,1.69-.08,2.57-.23.88-.16,1.69-.37,2.42-.65l1.09,6.03c-.94.38-1.98.71-3.12.99-1.14.28-2.55.42-4.21.42-2.12,0-3.87-.29-5.25-.86-1.39-.57-2.5-1.37-3.33-2.39s-1.41-2.26-1.74-3.72c-.33-1.46-.49-3.07-.49-4.84V8.8Z"/>
        <path class="cls-4" d="M279.43,7.71c0,1.42-.46,2.54-1.38,3.35-.92.82-2,1.22-3.25,1.22s-2.33-.41-3.25-1.22c-.92-.81-1.38-1.93-1.38-3.35s.46-2.54,1.38-3.35c.92-.81,2-1.22,3.25-1.22s2.33.41,3.25,1.22c.92.82,1.38,1.93,1.38,3.35ZM278.7,42.96h-7.75V15.61h7.75v27.35Z"/>
        <path class="cls-4" d="M310,29.23c0,2.15-.31,4.12-.94,5.9-.62,1.79-1.53,3.31-2.7,4.58-1.18,1.27-2.59,2.25-4.24,2.94-1.65.69-3.49,1.04-5.54,1.04s-3.84-.35-5.49-1.04c-1.65-.69-3.06-1.67-4.24-2.94-1.18-1.27-2.1-2.79-2.76-4.58-.66-1.79-.99-3.75-.99-5.9s.34-4.11,1.01-5.88c.68-1.77,1.61-3.28,2.81-4.52s2.62-2.22,4.26-2.91,3.44-1.04,5.38-1.04,3.79.35,5.43,1.04c1.65.69,3.06,1.66,4.24,2.91,1.18,1.25,2.1,2.76,2.76,4.52.66,1.77.99,3.73.99,5.88ZM302.1,29.23c0-2.39-.48-4.27-1.43-5.64-.95-1.37-2.31-2.05-4.08-2.05s-3.14.68-4.11,2.05c-.97,1.37-1.46,3.25-1.46,5.64s.49,4.29,1.46,5.69c.97,1.4,2.34,2.11,4.11,2.11s3.13-.7,4.08-2.11,1.43-3.3,1.43-5.69Z"/>
        <path class="cls-4" d="M314.42,16.55c1.32-.38,3.02-.74,5.1-1.07,2.08-.33,4.26-.49,6.55-.49s4.25.3,5.8.91c1.54.61,2.76,1.46,3.67,2.57s1.54,2.43,1.92,3.95c.38,1.53.57,3.22.57,5.1v15.44h-7.75v-14.51c0-2.5-.33-4.26-.99-5.3s-1.89-1.56-3.69-1.56c-.56,0-1.14.03-1.77.08-.62.05-1.18.11-1.66.18v21.11h-7.75v-26.42Z"/>
      </g>
      <g>
        <rect class="cls-3" width="100.54" height="57.1" rx="5.96" ry="5.96"/>
        <g>
          <path class="cls-1" d="M5.41,27.04c1.41,0,2.45-.44,3.1-1.31s.99-1.91.99-3.11v-6.76c0-1.44.14-2.72.41-3.84s.77-2.05,1.47-2.81c.71-.75,1.69-1.32,2.94-1.7,1.26-.38,2.87-.58,4.83-.58h.32v4.42c-.89,0-1.64.06-2.25.18-.61.12-1.1.34-1.47.67s-.64.75-.8,1.29c-.17.54-.25,1.22-.25,2.05v6.58c0,1.84-.24,3.3-.71,4.39-.48,1.09-1.28,1.99-2.42,2.69,1.13.71,1.94,1.61,2.42,2.71.47,1.1.71,2.56.71,4.37v6.62c0,.83.08,1.5.25,2.02.17.52.44.94.8,1.26s.86.54,1.47.67c.61.12,1.36.18,2.25.18v4.42c-2.06,0-3.73-.18-5.01-.55s-2.3-.93-3.04-1.68c-.74-.75-1.24-1.68-1.52-2.78-.28-1.1-.41-2.39-.41-3.86v-6.81c0-1.17-.33-2.18-.99-3.06s-1.69-1.31-3.1-1.31v-4.37Z"/>
          <path class="cls-1" d="M95.13,31.41c-1.41,0-2.45.44-3.1,1.31-.66.87-.99,1.89-.99,3.06v6.81c0,1.47-.14,2.76-.41,3.86-.28,1.1-.78,2.03-1.52,2.78-.74.75-1.75,1.31-3.04,1.68s-2.96.55-5.01.55v-4.42c1.78,0,3.02-.28,3.73-.85.71-.57,1.06-1.66,1.06-3.29v-6.62c0-1.81.24-3.27.71-4.37.48-1.1,1.28-2.01,2.42-2.71-1.13-.71-1.94-1.6-2.42-2.69s-.71-2.55-.71-4.39v-6.58c0-.83-.08-1.51-.25-2.05-.17-.54-.44-.97-.8-1.29s-.86-.54-1.47-.67c-.61-.12-1.37-.18-2.25-.18v-4.42h.32c1.96,0,3.57.19,4.83.58,1.26.38,2.24.95,2.94,1.7.71.75,1.2,1.69,1.47,2.81.28,1.12.41,2.4.41,3.84v6.76c0,1.2.33,2.23.99,3.11.66.87,1.69,1.31,3.1,1.31v4.37Z"/>
          <g>
            <path class="cls-1" d="M19.26,27.95c0-1.75.28-3.4.85-4.95.57-1.55,1.39-2.9,2.46-4.05s2.38-2.06,3.91-2.74c1.53-.67,3.28-1.01,5.24-1.01,1.29,0,2.47.12,3.54.34,1.07.23,2.12.56,3.13.99l-1.43,5.47c-.64-.24-1.35-.46-2.12-.64s-1.63-.28-2.58-.28c-2.02,0-3.54.63-4.53,1.89s-1.5,2.91-1.5,4.97c0,2.18.47,3.86,1.4,5.06.94,1.2,2.57,1.79,4.9,1.79.83,0,1.72-.08,2.67-.23.95-.15,1.82-.4,2.62-.74l.97,5.61c-.8.34-1.79.63-2.99.87-1.2.25-2.51.37-3.96.37-2.21,0-4.11-.33-5.7-.99s-2.91-1.56-3.93-2.69c-1.03-1.13-1.78-2.48-2.25-4.02-.48-1.55-.71-3.23-.71-5.04Z"/>
            <path class="cls-1" d="M48.79,35.13c1.26,0,2.15-.12,2.67-.37.52-.25.78-.72.78-1.43,0-.55-.34-1.04-1.01-1.45s-1.7-.88-3.08-1.4c-1.07-.4-2.05-.81-2.92-1.24s-1.62-.94-2.23-1.54c-.61-.6-1.09-1.31-1.43-2.14-.34-.83-.51-1.82-.51-2.99,0-2.27.84-4.06,2.53-5.38s4-1.98,6.95-1.98c1.47,0,2.88.13,4.23.39,1.35.26,2.42.54,3.22.85l-1.2,5.34c-.8-.28-1.66-.52-2.6-.74-.94-.21-1.99-.32-3.15-.32-2.15,0-3.22.6-3.22,1.79,0,.28.05.52.14.74.09.21.28.42.55.62.28.2.65.42,1.13.65s1.08.49,1.82.76c1.5.56,2.74,1.11,3.73,1.65s1.76,1.12,2.32,1.75c.57.63.97,1.32,1.2,2.09.23.76.34,1.65.34,2.66,0,2.39-.9,4.19-2.69,5.42s-4.33,1.84-7.61,1.84c-2.15,0-3.93-.18-5.36-.55-1.43-.37-2.42-.67-2.97-.92l1.15-5.57c1.17.46,2.36.82,3.59,1.08,1.23.26,2.44.39,3.63.39Z"/>
            <path class="cls-1" d="M69.54,35.13c1.26,0,2.15-.12,2.67-.37.52-.25.78-.72.78-1.43,0-.55-.34-1.04-1.01-1.45s-1.7-.88-3.08-1.4c-1.07-.4-2.05-.81-2.92-1.24s-1.62-.94-2.23-1.54c-.61-.6-1.09-1.31-1.43-2.14-.34-.83-.51-1.82-.51-2.99,0-2.27.84-4.06,2.53-5.38s4-1.98,6.95-1.98c1.47,0,2.88.13,4.23.39,1.35.26,2.42.54,3.22.85l-1.2,5.34c-.8-.28-1.66-.52-2.6-.74-.94-.21-1.99-.32-3.15-.32-2.15,0-3.22.6-3.22,1.79,0,.28.05.52.14.74.09.21.28.42.55.62.28.2.65.42,1.13.65s1.08.49,1.82.76c1.5.56,2.74,1.11,3.73,1.65s1.76,1.12,2.32,1.75c.57.63.97,1.32,1.2,2.09.23.76.34,1.65.34,2.66,0,2.39-.9,4.19-2.69,5.42s-4.33,1.84-7.61,1.84c-2.15,0-3.93-.18-5.36-.55-1.43-.37-2.42-.67-2.97-.92l1.15-5.57c1.17.46,2.36.82,3.59,1.08,1.23.26,2.44.39,3.63.39Z"/>
          </g>
        </g>
      </g>
    </g>
  </g>
</svg>