<?xml version="1.0" encoding="UTF-8"?>
<svg id="Layer_2" data-name="Layer 2" xmlns="http://www.w3.org/2000/svg" viewBox="0 0 51.66 49.83">
  <defs>
    <style>
      .cls-1 {
        fill: #fff;
      }

      .cls-2 {
        fill: #f3c;
      }
    </style>
  </defs>
  <g id="Layer_1-2" data-name="Layer 1">
    <g>
      <rect class="cls-2" width="51.66" height="49.83" rx="5.96" ry="5.96"/>
      <g>
        <g>
          <path class="cls-1" d="M7.45,25.02c1.28.3,2.24.9,2.9,1.79.66.89.98,2.15.98,3.76v8.58c0,1.01.25,1.7.76,2.09.5.38,1.14.58,1.92.58h2.38v2.77h-2.52c-1.81,0-3.19-.46-4.14-1.36-.94-.91-1.42-2.32-1.42-4.24v-8.58c0-1.48-.36-2.54-1.08-3.2-.72-.66-1.71-.98-2.95-.98v-2.63c1.25,0,2.23-.32,2.95-.98s1.08-1.74,1.08-3.25v-8.53c0-1.92.49-3.33,1.46-4.24s2.38-1.36,4.19-1.36h2.42v2.77h-2.41c-.8,0-1.45.18-1.92.55s-.71,1.08-.71,2.12v8.53c0,1.65-.33,2.91-.98,3.78-.66.88-1.62,1.48-2.9,1.81v.21h0Z"/>
          <path class="cls-1" d="M16.86,45.08h-3c-1.93,0-3.43-.5-4.47-1.5-1.04-1-1.56-2.54-1.56-4.58v-8.58c0-1.33-.31-2.29-.93-2.85-.63-.57-1.51-.86-2.63-.86h-.48v-2.07l-.42-.1h.42v-1.41h.48c1.14,0,2-.28,2.63-.86.62-.56.93-1.54.93-2.9v-8.53c0-2.05.54-3.59,1.61-4.59,1.06-.99,2.58-1.49,4.51-1.49h2.9v3.72h-2.89c-.69,0-1.24.15-1.62.45-.35.27-.53.87-.53,1.74v8.53c0,1.74-.36,3.11-1.07,4.07-.52.7-1.22,1.24-2.1,1.63.87.37,1.57.91,2.09,1.62.71.97,1.07,2.33,1.07,4.04v8.58c0,.85.19,1.43.58,1.72.42.32.97.49,1.63.49h2.85v3.72ZM4.75,25.77c1.15.08,2.09.44,2.79,1.09.82.75,1.24,1.94,1.24,3.55v8.58c0,1.78.43,3.09,1.27,3.9.85.82,2.13,1.23,3.81,1.23h2.05v-1.82h-1.9c-.87,0-1.62-.23-2.21-.68-.64-.49-.95-1.3-.95-2.47v-8.58c0-1.51-.3-2.68-.89-3.48-.59-.8-1.47-1.34-2.63-1.61l-2.6-.61v.91ZM4.75,24.54h2.24v-.1l.35-.09c1.16-.3,2.05-.86,2.64-1.64.59-.79.89-1.97.89-3.5v-8.53c0-1.19.3-2.03.89-2.49.55-.43,1.3-.65,2.21-.65h1.94v-1.82h-1.94c-1.69,0-2.98.42-3.86,1.24-.87.81-1.31,2.12-1.31,3.89v8.53c0,1.64-.42,2.86-1.24,3.6-.71.65-1.65,1.01-2.79,1.09v.48Z"/>
        </g>
        <g>
          <path class="cls-1" d="M44.2,24.81c-1.28-.3-2.24-.9-2.9-1.79-.66-.89-.98-2.15-.98-3.76v-8.58c0-1.01-.25-1.7-.76-2.09-.5-.38-1.14-.58-1.92-.58h-2.38v-2.77h2.52c1.81,0,3.19.46,4.14,1.36s1.42,2.32,1.42,4.24v8.58c0,1.48.36,2.54,1.08,3.2s1.7.98,2.95.98v2.63c-1.25,0-2.23.32-2.95.98s-1.08,1.74-1.08,3.25v8.53c0,1.92-.49,3.33-1.46,4.24s-2.38,1.36-4.19,1.36h-2.42v-2.77h2.42c.8,0,1.45-.18,1.92-.55s.71-1.08.71-2.12v-8.53c0-1.65.32-2.91.98-3.78s1.62-1.48,2.9-1.81c0,0,0-.21,0-.21Z"/>
          <path class="cls-1" d="M37.7,45.06h-2.9v-3.72h2.9c.69,0,1.24-.15,1.62-.45.35-.27.53-.87.53-1.74v-8.53c0-1.74.36-3.11,1.07-4.07.52-.7,1.22-1.24,2.1-1.62-.87-.37-1.58-.91-2.1-1.62-.71-.97-1.07-2.33-1.07-4.04v-8.58c0-.85-.19-1.43-.58-1.72-.42-.32-.97-.48-1.63-.48h-2.85v-3.72h3c1.93,0,3.43.5,4.47,1.5,1.04,1,1.56,2.54,1.56,4.58v8.58c0,1.33.31,2.29.93,2.85.63.58,1.5.86,2.63.86h.48v3.58h-.48c-1.14,0-2,.28-2.63.86-.62.56-.93,1.54-.93,2.9v8.53c0,2.05-.54,3.59-1.61,4.59-1.06.99-2.58,1.49-4.51,1.49ZM35.75,44.11h1.94c1.69,0,2.99-.42,3.86-1.24.87-.81,1.31-2.12,1.31-3.89v-8.53c0-1.65.42-2.86,1.24-3.6.71-.65,1.65-1.01,2.79-1.09v-1.71c-1.15-.08-2.08-.44-2.79-1.09-.82-.75-1.24-1.94-1.24-3.55v-8.58c0-1.78-.43-3.09-1.27-3.9-.85-.82-2.13-1.23-3.81-1.23h-2.05v1.82h1.9c.87,0,1.61.23,2.21.68.64.49.95,1.3.95,2.47v8.58c0,1.51.3,2.68.89,3.48.59.81,1.45,1.33,2.63,1.61l.37.09v.95l-.36.09c-1.16.3-2.05.85-2.64,1.64-.59.79-.89,1.96-.89,3.5v8.53c0,1.19-.3,2.03-.89,2.49-.55.43-1.3.65-2.21.65h-1.94v1.82Z"/>
        </g>
      </g>
    </g>
  </g>
</svg>